<svg width="40" height="45" viewBox="0 0 40 45" fill="none" xmlns="http://www.w3.org/2000/svg">
<path d="M17.9995 1.02465C19.2373 0.325117 20.7625 0.325117 22.0003 1.02465L38.0002 10.067C39.2375 10.7663 39.9998 12.0584 39.9998 13.4568V31.5432C39.9998 32.9416 39.2375 34.2337 38.0002 34.933L22.0003 43.9753C20.7625 44.6749 19.2373 44.6749 17.9995 43.9753L1.9996 34.933C0.762299 34.2337 0 32.9416 0 31.5432V13.4568C0 12.0584 0.762299 10.7663 1.9996 10.067L17.9995 1.02465Z" fill="#96BEDC"/>
<path d="M19.4001 3.37029C19.8127 3.13699 20.3213 3.13699 20.7339 3.37029L36.5672 12.3211C36.9795 12.5542 37.2335 12.9849 37.2335 13.4509V31.3537C37.2335 31.8198 36.9795 32.2505 36.5672 32.4836L20.7339 41.4344C20.3213 41.6677 19.8127 41.6677 19.4001 41.4344L3.56679 32.4836C3.15449 32.2505 2.90039 31.8198 2.90039 31.3537V13.4509C2.90039 12.9849 3.15449 12.5542 3.56679 12.3211L19.4001 3.37029Z" fill="#2D374B"/>
<path d="M4.3908 36.2842L1.536 34.6708C0.5869 34.1344 0 33.1286 0 32.0384L10.7252 15.9777C11.8949 14.2261 13.8887 13.1704 16.0268 13.1704H19.1165L4.3908 36.2842Z" fill="white"/>
<path d="M11.2068 40.1361L6.07227 37.2343L21.0335 13.1704H27.5168L11.2068 40.1361Z" fill="white"/>
<path fill-rule="evenodd" clip-rule="evenodd" d="M32.0532 35.0347L26.3625 38.2518L20.166 28.7631L23.966 22.5326L32.0532 35.0347ZM37.2327 28.5983V31.3536C37.2327 31.8196 36.9787 32.2503 36.5664 32.4834L33.675 34.1179L25.066 20.5917L28.3659 15.1768L37.2327 28.5983Z" fill="#28A0F0"/>
</svg>
