<svg width="38" height="38" viewBox="0 0 38 38" fill="none" xmlns="http://www.w3.org/2000/svg">
<path d="M4.44348 14.8193L8.63695 19.0113L4.44348 23.2031L0.25 19.0113L4.44348 14.8193Z" fill="white"/>
<path d="M19.0001 14.8193L23.1936 19.0113L19.0001 23.2031L14.8066 19.0113L19.0001 14.8193Z" fill="white"/>
<path d="M33.5568 14.8193L37.7503 19.0113L33.5568 23.2031L29.3633 19.0113L33.5568 14.8193Z" fill="white"/>
<path d="M19.0402 0.246582L30.5192 11.7211L26.3257 15.913L14.8467 4.43846L19.0402 0.246582Z" fill="white"/>
<path d="M19.0542 0.246582L7.5752 11.7211L11.7687 15.913L23.2474 4.43846L19.0542 0.246582Z" fill="white"/>
<path d="M19.0402 37.7468L30.5192 26.2723L26.3257 22.0806L14.8467 33.5551L19.0402 37.7468Z" fill="white"/>
<path d="M19.0542 37.7468L7.5752 26.2723L11.7687 22.0806L23.2474 33.5551L19.0542 37.7468Z" fill="white"/>
</svg>
