<svg width="30" height="31" viewBox="0 0 30 31" fill="none" xmlns="http://www.w3.org/2000/svg">
<path d="M23.5283 0.541018C19.9843 0.538184 17.0642 3.44868 17.055 6.99268V14.146C16.3883 14.191 15.7067 14.2194 15 14.2194C14.2933 14.2194 13.615 14.2477 12.945 14.2877V6.99268C12.8887 3.48118 9.9845 0.623184 6.4725 0.623184C2.9605 0.623184 0.0563333 3.48118 0 6.99268V24.0893C0.0563333 27.6008 2.9605 30.4589 6.4725 30.4589C9.9845 30.4589 12.8887 27.6008 12.945 24.0893V16.936C13.6117 16.891 14.2933 16.8627 15 16.8627C15.7067 16.8627 16.385 16.8344 17.055 16.7944V24.0893C17.1113 27.6008 20.0155 30.4589 23.5275 30.4589C27.0395 30.4589 29.9437 27.6008 30 24.0893V6.99268C29.9908 3.44935 27.0717 0.539184 23.5283 0.541018ZM6.47167 3.18435C8.56317 3.18335 10.2862 4.90118 10.2917 6.99268V14.5677C8.398 14.842 6.54867 15.3649 4.79167 16.1227C4.03033 16.4569 3.31367 16.8845 2.65833 17.396V6.99268C2.66383 4.90368 4.38267 3.18702 6.47167 3.18435ZM10.2917 24.0893C10.2917 26.185 8.56733 27.9093 6.47167 27.9093C4.376 27.9093 2.65167 26.185 2.65167 24.0893V22.3743C2.65167 20.8594 3.85167 19.4244 5.86333 18.531C7.28083 17.9195 8.768 17.4845 10.2917 17.236V24.0893ZM23.5283 27.8977C21.4368 27.8987 19.7138 26.1808 19.7083 24.0893V16.5143C21.602 16.24 23.4513 15.7172 25.2083 14.9593C25.9697 14.6252 26.6863 14.1975 27.3417 13.686V24.0893C27.3362 26.1783 25.6173 27.895 23.5283 27.8977ZM24.1367 12.541C22.7192 13.1525 21.232 13.5875 19.7083 13.836V6.99268C19.7083 4.89702 21.4327 3.17268 23.5283 3.17268C25.624 3.17268 27.3483 4.89702 27.3483 6.99268V8.70768C27.3483 10.216 26.1483 11.651 24.1367 12.541Z" fill="white"/>
</svg>