<svg width="25" height="25" fill="none" xmlns="http://www.w3.org/2000/svg"><circle cx="12.764" cy="12.5" r="12" fill="#8247E5"/><path d="M16.365 10.106a.932.932 0 0 0-.877 0l-2.047 1.206-1.39.768-2.01 1.206a.932.932 0 0 1-.877 0l-1.572-.95a.89.89 0 0 1-.439-.768V9.74c0-.292.147-.585.44-.767l1.57-.914a.931.931 0 0 1 .878 0l1.572.95a.891.891 0 0 1 .439.768v1.206l1.389-.804V8.936a.902.902 0 0 0-.439-.768L10.078 6.45a.931.931 0 0 0-.878 0L6.203 8.205a.804.804 0 0 0-.439.731v3.436c0 .293.147.585.439.768l2.96 1.718a.932.932 0 0 0 .878 0l2.01-1.17 1.39-.804 2.01-1.17a.931.931 0 0 1 .877 0l1.572.914a.891.891 0 0 1 .439.768v1.827a.902.902 0 0 1-.439.768l-1.535.914a.931.931 0 0 1-.877 0l-1.572-.914a.891.891 0 0 1-.439-.768v-1.17l-1.389.805v1.206c0 .293.146.585.439.768l2.96 1.718a.931.931 0 0 0 .878 0l2.96-1.718a.891.891 0 0 0 .44-.768v-3.473a.902.902 0 0 0-.44-.767l-2.96-1.718Z" fill="#fff"/></svg>