<svg width="30" height="31" viewBox="0 0 30 31" fill="none" xmlns="http://www.w3.org/2000/svg">
<path d="M24.04 2.04823L17.7802 11.3379C17.3474 11.9705 18.1798 12.7364 18.7791 12.2036L24.939 6.8429C25.1054 6.70972 25.3385 6.80961 25.3385 7.04268V23.7907C25.3385 24.0238 25.0388 24.1237 24.9057 23.9572L6.25971 1.64868C5.66038 0.916158 4.79467 0.516602 3.82908 0.516602H3.16315C1.43174 0.516602 0 1.94834 0 3.71305V27.2869C0 29.0516 1.43174 30.4833 3.19645 30.4833C4.29523 30.4833 5.32741 29.9173 5.92675 28.9517L12.1865 19.662C12.6193 19.0294 11.7869 18.2635 11.1876 18.7963L5.02775 24.1237C4.86127 24.2569 4.62819 24.157 4.62819 23.9239V7.20916C4.62819 6.97609 4.92786 6.8762 5.06104 7.04268L23.707 29.3512C24.3063 30.0837 25.2053 30.4833 26.1376 30.4833H26.8036C28.5683 30.4833 30 29.0516 30 27.2869V3.71305C30 1.94834 28.5683 0.516602 26.8036 0.516602C25.6715 0.516602 24.6393 1.08264 24.04 2.04823Z" fill="black"/>
</svg>
