<svg width="32" height="17" viewBox="0 0 32 17" fill="none" xmlns="http://www.w3.org/2000/svg">
<path fill-rule="evenodd" clip-rule="evenodd" d="M1.75439 15.6109C2.93956 16.4843 4.45995 16.9209 6.31564 16.9209C8.56128 16.9209 10.3547 16.3984 11.6958 15.3536C13.0368 14.2932 13.9803 12.6949 14.5262 10.5582C14.8537 9.24843 15.1344 7.89952 15.3683 6.51172C15.4463 6.01257 15.4854 5.59927 15.4854 5.27182C15.4854 4.18023 15.2123 3.24462 14.6664 2.46498C14.1208 1.66962 13.3721 1.07697 12.421 0.687046C11.4697 0.28182 10.3936 0.0791016 9.19302 0.0791016C4.77973 0.0791016 2.04285 2.22317 0.982487 6.51172C0.608243 8.08672 0.319762 9.43563 0.116936 10.5582C0.0390359 11.0574 0 11.4786 0 11.8215C0 13.459 0.584805 14.7221 1.75439 15.6109ZM8.86536 12.7805C8.2572 13.2952 7.51666 13.5525 6.64309 13.5525C5.14629 13.5525 4.39763 12.8351 4.39763 11.4004C4.39763 11.0574 4.42878 10.7299 4.49125 10.418C4.77187 8.90546 5.05258 7.62667 5.33328 6.58184C5.59847 5.5215 6.03515 4.73399 6.64309 4.21912C7.26698 3.70467 8.01538 3.44734 8.88894 3.44734C10.3702 3.44734 11.111 4.15686 11.111 5.57589C11.111 5.91907 11.0798 6.25439 11.0175 6.58184C10.8303 7.67342 10.5574 8.95221 10.1988 10.418C9.93356 11.4786 9.48924 12.2661 8.86536 12.7805ZM16.1639 16.5225C16.2574 16.6317 16.39 16.6864 16.5617 16.6864H19.7429C19.8987 16.6864 20.047 16.6317 20.1873 16.5225C20.3275 16.4133 20.4133 16.2731 20.4446 16.1016L21.5207 10.9788H24.6785C26.7212 10.9788 28.3275 10.55 29.4972 9.69233C30.6823 8.8347 31.4698 7.50916 31.8595 5.71571C31.9533 5.29476 32 4.88911 32 4.4994C32 3.14263 31.4698 2.10566 30.4093 1.38828C29.3644 0.670896 27.9766 0.312206 26.2457 0.312206H20.0234C19.8677 0.312206 19.7196 0.366818 19.5791 0.47604C19.4386 0.585262 19.353 0.725506 19.3218 0.896989L16.0938 16.1016C16.0625 16.2575 16.0859 16.3978 16.1639 16.5225ZM26.5497 7.21274C26.0663 7.57143 25.497 7.75077 24.8421 7.75077H22.1522L23.041 3.56379H25.8481C26.4875 3.56379 26.9397 3.68831 27.2047 3.93799C27.4698 4.17195 27.6024 4.51491 27.6024 4.9671C27.6024 5.16982 27.5791 5.40378 27.5323 5.66897C27.3763 6.3396 27.0487 6.85405 26.5497 7.21274Z" fill="white"/>
</svg>
