<svg width="40" height="35" viewBox="0 0 40 35" fill="none" xmlns="http://www.w3.org/2000/svg">
<path fill-rule="evenodd" clip-rule="evenodd" d="M10.0287 0.7517C10.6328 0.4161 11.3672 0.4161 11.9713 0.7517L20.9713 5.7517C21.6062 6.1044 22 6.7737 22 7.5V10.7517L18 13V8.6768L11 4.7879L4 8.6768V16.3232L11 20.2121L28.0287 10.7517C28.6328 10.4161 29.3672 10.4161 29.9713 10.7517L38.9713 15.7517C39.6062 16.1044 40 16.7737 40 17.5V27.5C40 28.2263 39.6062 28.8956 38.9713 29.2483L29.9713 34.2483C29.3672 34.5839 28.6328 34.5839 28.0287 34.2483L19.0287 29.2483C18.3938 28.8956 18 28.2263 18 27.5V24.2483L22 22V26.3232L29 30.2121L36 26.3232V18.6768L29 14.7879L11.9713 24.2483C11.3672 24.5839 10.6328 24.5839 10.0287 24.2483L1.0287 19.2483C0.3938 18.8956 0 18.2263 0 17.5V7.5C0 6.7737 0.3938 6.1044 1.0287 5.7517L10.0287 0.7517Z" fill="white"/>
</svg>