<?xml version="1.0" encoding="utf-8"?>
<svg version="1.1" id="Layer_1" xmlns="http://www.w3.org/2000/svg" xmlns:xlink="http://www.w3.org/1999/xlink"  width="45" height="40" viewBox="0 0 45 40"><path d="M0 0V40H37.0334V35.5165H4.43502V4.48347H37.0334V0H0Z" fill="#000"></path><path d="M40.7123 15.3719C40.7123 14.4215 40.3444 13.595 39.6086 12.8926C38.8729 12.1901 37.851 11.8388 36.5225 11.8388C35.3984 11.8388 34.5196 12.0661 33.8656 12.5413C33.2116 13.0165 32.8846 13.6364 32.8846 14.4215C32.8846 14.8347 32.9663 15.2066 33.1298 15.5372C33.2933 15.8678 33.559 16.157 33.9473 16.4256C34.3356 16.6942 34.8466 16.9215 35.5006 17.1281C36.1342 17.3347 36.9517 17.5207 37.9327 17.7066C40.4057 18.1612 42.286 18.9256 43.594 19.9793C44.902 21.0537 45.556 22.624 45.556 24.7107V25.124C45.556 26.2397 45.3517 27.2314 44.9633 28.1405C44.575 29.0289 44.0028 29.7934 43.267 30.4339C42.5312 31.0744 41.632 31.5496 40.5692 31.9008C39.5064 32.2314 38.321 32.4173 36.9926 32.4173C35.4393 32.4173 34.0904 32.1901 32.905 31.7562C31.7196 31.3223 30.7386 30.7025 29.9619 29.9173C29.1853 29.1322 28.5722 28.2231 28.1838 27.1694C27.7751 26.1157 27.5707 24.9587 27.5707 23.719V23.5124H32.0057C32.0057 24.938 32.4145 26.0744 33.232 26.9421C34.0495 27.7892 35.3167 28.2231 37.0539 28.2231C38.4028 28.2231 39.4042 27.9339 40.0582 27.3347C40.7123 26.7355 41.0393 26.0331 41.0393 25.2273C41.0393 24.8347 40.978 24.4835 40.8349 24.1116C40.6918 23.7603 40.467 23.4504 40.1196 23.1612C39.7926 22.8719 39.3225 22.624 38.7298 22.3967C38.1371 22.1694 37.4013 21.9835 36.5021 21.8182C35.3167 21.6116 34.2335 21.343 33.232 21.0124C32.251 20.6818 31.3926 20.2479 30.6568 19.7107C29.9211 19.1735 29.3692 18.4917 28.9605 17.6653C28.5517 16.8388 28.3473 15.8471 28.3473 14.6694V14.4628C28.3473 13.4917 28.5517 12.5826 28.94 11.7562C29.3284 10.9297 29.8802 10.2066 30.5955 9.58677C31.3108 8.96694 32.1488 8.49173 33.1502 8.16115C34.1517 7.83057 35.2553 7.64462 36.5021 7.64462C37.8918 7.64462 39.1181 7.85123 40.2013 8.2438C41.2845 8.63636 42.1838 9.17355 42.9195 9.85537C43.6553 10.5372 44.1458 11.343 44.575 12.2107C45.1064 13.2645 45.1268 15.4132 45.1268 15.4132L40.7123 15.3719Z" fill="#000"></path></svg>
