<svg width="26" height="25" viewBox="0 0 26 25" fill="none" xmlns="http://www.w3.org/2000/svg">
<path fill-rule="evenodd" clip-rule="evenodd" d="M4.6523 0.326172H21.4784C22.0737 0.326172 22.6686 0.413493 23.2902 0.703314C24.0354 1.05067 24.4306 1.59817 24.7074 2.00306C24.7289 2.03456 24.7491 2.06703 24.7677 2.10024C25.0932 2.67967 25.261 3.30528 25.261 3.97835C25.261 4.61767 25.1089 5.31431 24.7677 5.92149C24.7645 5.92739 24.7612 5.93317 24.7579 5.93885L14.1274 24.1997C13.8929 24.6025 13.4615 24.8496 12.9955 24.8479C12.5296 24.8462 12.0998 24.5961 11.8683 24.1917L1.43298 5.96981C1.42998 5.96489 1.42698 5.95996 1.42398 5.95492C1.18516 5.56149 0.815836 4.95281 0.751229 4.16746C0.691872 3.44521 0.854193 2.72167 1.21709 2.09414C1.57998 1.4666 2.1263 0.964956 2.78341 0.657885C3.48798 0.328742 4.20198 0.326172 4.6523 0.326172ZM11.6958 2.93478H4.6523C4.18955 2.93478 4.01191 2.96328 3.88773 3.02135C3.71598 3.1016 3.57176 3.23339 3.47534 3.4001C3.37891 3.56692 3.3353 3.76021 3.35116 3.95371C3.36026 4.0646 3.40548 4.19146 3.67216 4.63128C3.67773 4.64049 3.68319 4.64981 3.68855 4.65924L11.6958 18.6413V2.93478ZM14.3045 2.93478V18.7103L22.4972 4.63696C22.5896 4.46896 22.6523 4.22628 22.6523 3.97835C22.6523 3.77714 22.6106 3.60249 22.5174 3.42249C22.4196 3.28182 22.36 3.20735 22.3102 3.15635C22.2674 3.11274 22.2346 3.08939 22.1881 3.06774C21.9943 2.97742 21.7961 2.93478 21.4784 2.93478H14.3045Z" fill="white"/>
</svg>
