<svg width="56" height="61" viewBox="0 0 56 61" fill="none" xmlns="http://www.w3.org/2000/svg">
<path d="M17.6514 33.4189L19.5264 19.2978L3.2373 7.98926L18.1201 13.0283L21.6357 7.63769L34.4678 -0.331055L62.7686 15.2549L64.2334 39.0439L51.6358 56.5635L41.6748 58.0869L46.8311 48.6533V39.5713L43.0811 32.4814L39.2725 29.9619L33.4131 35.9971V42.3838L28.8428 46.6611L23.042 47.3643L20.4639 48.8291L16.2451 47.4814L14.4873 41.1533L17.6514 36.7002V33.4189Z" fill="white"/>
<path d="M43.6669 7.87248C40.5615 7.22795 37.163 7.40373 37.163 7.40373C37.163 7.40373 36.0498 12.56 29.1357 13.9076C29.1943 13.9076 38.2763 17.0131 43.6669 7.87248Z" fill="#94A6C3"/>
<path d="M46.4795 54.6304C50.2295 51.7008 53.042 47.6578 54.3311 43.0875C54.3897 42.9117 54.917 42.6187 55.2686 42.3844C55.8545 42.0328 56.4404 41.7398 56.5576 41.2711C56.792 39.9234 56.9092 38.5172 56.9092 37.1109C56.9092 36.5836 56.3819 36.0562 55.8545 35.5289C55.4444 35.1773 55.0342 34.7672 55.0342 34.4742C54.4483 29.1422 51.9873 24.1617 48.0615 20.5289L47.6514 20.939C51.46 24.5133 53.9209 29.3765 54.4483 34.5328C54.5069 35.0015 54.9756 35.4703 55.4444 35.939C55.8545 36.2906 56.3233 36.818 56.3233 37.0523C56.3233 38.4 56.2061 39.7476 55.9717 41.0953C55.9131 41.3297 55.3858 41.564 54.9756 41.7984C54.3897 42.0914 53.8623 42.3844 53.7451 42.8531C52.3389 47.8336 49.1162 52.1695 44.8389 54.982C45.6006 53.3414 48.0029 48.0094 49.292 45.314L49.0576 36.6422L41.6162 29.4351L37.3975 30.0211L32.7686 37.5211C32.7686 37.5211 34.9365 40.275 31.8897 43.4976C28.9014 46.6617 26.5576 47.3648 26.5576 47.3648L24.3897 46.193C25.0342 45.3726 26.3232 44.1422 27.3193 43.3219C29.0186 41.9156 30.7178 41.7984 30.7178 40.275C30.7764 37.1109 27.3779 37.9898 27.3779 37.9898L26.1475 39.1617L25.6201 43.4976L23.042 46.7203L22.749 46.6617L18.5303 45.7242C18.5303 45.7242 21.1084 44.3765 21.5186 42.8531C21.9287 41.3883 20.6982 36.525 20.6397 36.232C20.6982 36.2906 21.8701 37.2867 22.3975 38.9273C23.335 36.3492 24.5654 33.8883 24.917 33.6539C25.2686 33.4195 30.0147 30.9 30.0147 30.9L28.4326 35.0601L29.6045 34.4156L32.417 27.5015C32.417 27.5015 35.1709 26.1539 37.2217 26.1539C40.9131 26.0953 46.3623 21.5836 43.9014 13.4976C44.6045 13.7906 56.792 19.8844 58.9014 31.8375C60.4834 41.0367 55.2686 49.65 46.4795 54.6304Z" fill="#94A6C3"/>
<path d="M32.5348 9.16113C33.8825 7.5791 33.3551 5.23535 33.3551 5.23535L29.4294 11.0362C29.3708 11.0362 30.8356 11.0948 32.5348 9.16113Z" fill="#233B58"/>
<path d="M19.3512 40.8609L19.82 38.5171C19.82 38.5171 17.8864 41.9156 17.7106 42.3843C17.5348 42.9117 17.8278 43.8492 18.5895 43.7906C19.3512 43.732 20.2887 42.6187 20.2887 41.7984C20.2887 40.7437 19.3512 40.8609 19.3512 40.8609Z" fill="#233B58"/>
<path d="M54.1555 3.59502C54.1555 3.59502 57.0852 3.71221 60.1321 4.06377C53.2766 -1.32685 46.7727 -2.90889 41.4992 -2.90889C34.2336 -2.90889 29.3117 0.0793996 29.0188 0.255182L31.3039 -3.37764C31.3039 -3.37764 22.1633 -4.25654 18.9406 5.41143C18.1203 3.36065 17.3586 0.372369 17.3586 0.372369C17.3586 0.372369 12.6125 4.53252 14.8391 11.4466C9.3898 9.45439 1.59688 6.70049 1.30391 6.64189C0.893753 6.5833 0.776563 6.75908 0.776563 6.75908C0.776563 6.75908 0.659373 6.93486 1.01094 7.22783C1.65547 7.75519 13.9602 16.8372 16.6555 18.595C16.0695 20.7044 16.0695 21.7005 16.6555 22.6966C17.4758 24.0442 17.5344 24.7474 17.4172 25.7435C17.3 26.7395 16.2453 35.3528 16.0109 36.4075C15.7766 37.4622 13.3156 41.2122 13.4328 42.3255C13.55 43.4388 15.0734 48.1849 16.4211 48.7122C17.4172 49.0638 19.8781 49.8255 21.5188 49.8255C22.1047 49.8255 22.632 49.7083 22.8664 49.4739C23.8625 48.595 24.1555 48.4192 24.8586 48.4192C24.9172 48.4192 24.9758 48.4192 25.0344 48.4192C25.3274 48.4192 25.6789 48.4778 26.0891 48.4778C27.0266 48.4778 28.257 48.302 29.136 47.4817C30.425 46.1927 32.6516 44.4349 33.3547 43.6145C34.2336 42.5013 34.7024 40.9778 34.468 39.4544C34.2922 38.0481 35.0539 36.8177 35.9328 35.5872C37.0461 34.1224 39.0969 31.4856 39.0969 31.4856C43.1399 34.5325 45.6594 39.1614 45.6594 44.3177C45.6594 53.4583 37.6906 60.8411 27.8469 60.8411C26.3235 60.8411 24.8586 60.6653 23.3938 60.3138C27.9055 61.8958 31.7141 62.4231 34.8195 62.4231C41.4406 62.4231 44.9563 60.0208 44.9563 60.0208C44.9563 60.0208 43.7258 61.6028 41.7336 63.4192C41.7922 63.4192 41.7922 63.4192 41.7922 63.4192C52.7492 61.8958 58.0813 52.8724 58.0813 52.8724C58.0813 52.8724 57.6711 55.802 57.1438 57.7942C71.7336 46.8372 69.2727 33.1263 69.2141 32.6575C69.3313 32.8333 70.7961 34.5911 71.5578 35.5286C73.9016 11.388 54.1555 3.59502 54.1555 3.59502ZM31.7141 42.1497C31.4797 42.4427 30.4836 43.3216 29.7805 43.9661C29.0774 44.6106 28.3156 45.2552 27.7297 45.8411C27.4953 46.0755 27.0266 46.1927 26.3234 46.1927C26.0891 46.1927 25.8547 46.1927 25.6789 46.1927C25.5617 46.1927 25.4445 46.1927 25.3274 46.1927C25.2102 46.1927 25.1516 46.1927 25.093 46.1927C24.9172 46.1927 24.7414 46.1927 24.5656 46.1927C25.4445 45.0208 28.0227 42.3255 28.9016 41.7395C29.9563 41.0364 30.4836 40.3333 29.8391 39.1028C29.1945 37.8724 27.4953 38.1653 27.4953 38.1653C27.4953 38.1653 28.4914 37.7552 29.3703 37.7552C28.257 37.4622 26.8508 37.7552 26.2063 38.3997C25.5031 39.0442 25.6203 41.3294 25.3274 42.7942C25.0344 44.3177 24.0383 45.0794 22.5149 46.4856C21.6945 47.2474 21.1086 47.4817 20.6399 47.4817C19.6438 47.3059 18.4719 47.013 17.6516 46.72C17.0656 45.9583 16.1867 43.4388 15.9523 42.3841C16.1281 41.7981 16.8313 40.5677 17.1828 39.8645C17.8859 38.5169 18.2961 37.7552 18.4133 37.052C18.6477 36.056 19.4094 29.9036 19.7024 27.3255C20.4641 28.3216 21.5188 29.9622 21.2844 31.0169C22.9836 28.6145 21.7531 26.2708 21.1672 25.3333C20.6399 24.3958 19.9367 22.5208 20.5227 20.5286C21.1086 18.5364 23.218 13.0286 23.218 13.0286C23.218 13.0286 23.9211 14.2591 24.9172 14.0247C25.9133 13.7903 33.9406 1.72002 33.9406 1.72002C33.9406 1.72002 36.1086 6.46611 33.8235 9.92314C31.4797 13.3802 29.1945 14.0247 29.1945 14.0247C29.1945 14.0247 32.4172 14.6106 35.4055 12.4427C36.636 15.3138 37.8078 18.302 37.8664 18.7122C37.6906 19.1224 35.3469 24.7474 35.1125 25.0989C34.9953 25.2161 34.175 25.4505 33.5891 25.5677C32.593 25.8606 32.007 26.0364 31.7727 26.2122C31.3625 26.5638 29.4875 31.72 28.6086 34.2395C27.5539 34.5325 26.4992 35.1184 25.7375 36.2903C26.1477 35.9974 27.4367 35.8216 28.3742 35.7044C29.1945 35.6458 31.7141 36.9934 32.3586 39.513C32.3586 39.5716 32.3586 39.5716 32.3586 39.6302C32.4758 40.5677 32.1828 41.4466 31.7141 42.1497ZM26.2063 42.8528C26.7336 42.0911 26.675 40.802 26.7336 40.3919C26.7922 39.9817 26.9094 39.22 27.3781 39.1028C27.8469 38.9856 28.9602 39.1614 28.9602 39.9817C28.9602 40.7434 28.1399 40.9192 27.5539 41.4466C27.1438 41.8567 26.3235 42.7356 26.2063 42.8528ZM49.5852 31.6614C50.1711 28.6731 50.2297 26.095 50.0539 23.9856C52.3391 27.0325 53.7453 30.7239 54.1555 34.5325C54.2141 35.0013 54.6828 35.47 55.1516 35.9388C55.5617 36.2903 56.0305 36.7591 56.0305 37.052C56.0305 38.3997 55.9133 39.7474 55.6789 41.095C55.6203 41.2708 55.093 41.5638 54.6828 41.7981C54.0969 42.0911 53.5696 42.3841 53.4524 42.8528C52.1633 47.3645 49.4094 51.3489 45.718 54.1614C51.1672 48.4778 53.8039 39.1028 49.5852 31.6614ZM45.8938 54.6888C49.7024 51.7591 52.632 47.6575 53.9211 43.0286C53.9797 42.8528 54.5071 42.5599 54.8586 42.3255C55.4446 42.0325 56.0305 41.6809 56.1477 41.2122C56.3821 39.8645 56.4992 38.4583 56.4992 37.052C56.4992 36.5247 55.9719 35.9974 55.4446 35.47C55.1516 35.1185 54.6828 34.7083 54.6828 34.4153C54.2141 30.138 52.5149 26.095 49.8781 22.7552C48.7063 15.7239 44.0188 13.556 43.9016 13.4974C44.0188 13.6731 47.0656 18.0677 44.9563 23.2239C42.7883 28.4388 37.2219 27.6185 36.7531 27.677C36.2844 27.677 34.468 30.0208 32.1828 34.3567C31.8899 34.2395 30.6594 33.9466 29.2531 34.1809C30.3078 31.2513 31.8899 27.0911 32.1828 26.7395C32.3 26.6224 33.1789 26.388 33.7649 26.2122C34.8781 25.9192 35.4055 25.7435 35.5813 25.5091C35.6985 25.3333 36.2844 23.9856 36.8703 22.5794C37.3977 22.5794 38.7453 22.4622 38.8625 22.4036C38.9797 22.2864 40.093 19.4153 40.093 19.0638C40.093 18.7708 37.8078 13.0872 36.9289 10.9192C37.3391 10.4505 37.7492 9.86456 38.1594 9.22003C50.1711 10.5091 59.5461 20.7044 59.5461 33.0677C59.5461 42.5599 53.9797 50.8216 45.8938 54.6888Z" fill="#233B58"/>
<path d="M30.3076 23.0483C31.4209 21.7593 30.835 19.3569 28.7842 18.9468C29.3115 17.7163 30.0733 15.2554 30.0733 15.2554C30.0733 15.2554 24.0967 24.6303 23.5693 24.8061C23.042 24.9819 22.5147 22.9311 22.5147 22.9311C21.4014 27.2085 24.3897 27.7944 24.7412 26.4468C26.3818 26.0366 29.1943 24.2788 30.3076 23.0483Z" fill="#233B58"/>
<path d="M25.21 25.3335L28.2568 20.1187C28.2568 20.1187 30.0147 20.9976 29.1357 22.4038C28.0225 24.0444 25.21 25.3335 25.21 25.3335Z" fill="#FFD923"/>
<path d="M69.917 30.7826C67.2803 23.6928 63.5303 17.6576 55.2686 12.2084C47.2998 6.93504 38.7451 7.3452 38.2764 7.40379C38.2178 7.40379 38.1592 7.40379 38.1592 7.40379C38.4522 7.28661 38.7451 7.22801 39.0381 7.16942C40.8545 6.58348 43.1983 6.11473 45.542 5.82176C51.753 4.94286 58.0225 7.05223 62.2998 11.5639C62.3584 11.6225 62.3584 11.6225 62.417 11.6811C67.2803 16.8373 69.7998 23.2826 69.917 30.7826Z" fill="#D82122"/>
<path d="M53.3936 1.77881C44.6631 0.138187 39.0381 0.958499 34.9951 2.48194C34.878 2.01319 34.4678 1.07569 34.1162 0.313968C32.8858 1.77881 31.5967 3.53663 30.7764 4.64991C28.5498 6.17334 27.6123 7.63819 27.6123 7.63819C28.9014 3.24366 32.6514 -0.0375946 37.2217 -0.857903C38.5108 -1.09228 39.917 -1.20947 41.4405 -1.20947C45.4834 -1.15087 49.5264 -0.154782 53.3936 1.77881Z" fill="#D82122"/>
<path d="M21.1085 13.0288C14.253 12.7944 16.5381 4.82568 16.6553 4.35693C16.6553 4.41552 17.1241 10.6264 21.1085 13.0288Z" fill="#D82122"/>
<path d="M27.8469 -1.32666C22.5735 1.8374 23.6282 9.39599 23.6282 9.39599C18.5891 1.72021 27.4368 -1.15088 27.8469 -1.32666Z" fill="#D82122"/>
<path d="M19.1748 15.1382C19.5264 15.4312 19.8779 15.9585 19.4678 16.7202C19.2334 17.1304 18.8818 17.0718 18.3545 16.8374C17.6514 16.4858 13.4326 14.0249 9.62402 11.5054C13.96 13.0288 18.3545 14.6694 19.0576 15.021C19.0576 15.021 19.1162 15.0796 19.1748 15.1382Z" fill="white"/>
<path d="M17.4453 1.61328L17.6797 -0.144531L24.3301 -0.466797L19.1152 6.79883L17.4453 1.61328Z" fill="#233A58"/>
<path d="M55.0332 2.05273L52.9824 -1.375H58.4902L58.2852 7.12109L52.6602 3.78125L55.0332 2.05273Z" fill="#233A58"/>
<path d="M43.2266 59.0059L38.1289 63.8105L56.0586 63.4883L60.1895 51.5352L43.2266 59.0059Z" fill="#233A58"/>
</svg>
