<svg width="32" height="33" viewBox="0 0 32 33" fill="none" xmlns="http://www.w3.org/2000/svg">
<path d="M32 16.5C32 7.66344 24.8366 0.5 16 0.5C7.16344 0.5 0 7.66344 0 16.5C0 25.3366 7.16344 32.5 16 32.5C24.8366 32.5 32 25.3366 32 16.5Z" fill="url(#paint0_linear_0_1)"/>
<path d="M25 16.5C25 11.5294 20.9706 7.5 16 7.5C11.0294 7.5 7 11.5294 7 16.5C7 21.4706 11.0294 25.5 16 25.5C20.9706 25.5 25 21.4706 25 16.5Z" fill="white"/>
<path d="M18 13.5H14C13.4477 13.5 13 13.9477 13 14.5V18.5C13 19.0523 13.4477 19.5 14 19.5H18C18.5523 19.5 19 19.0523 19 18.5V14.5C19 13.9477 18.5523 13.5 18 13.5Z" fill="url(#paint1_linear_0_1)"/>
<defs>
<linearGradient id="paint0_linear_0_1" x1="16" y1="0.5" x2="16" y2="32.5" gradientUnits="userSpaceOnUse">
<stop stop-color="#2D66F5"/>
<stop offset="1" stop-color="#144ADF"/>
</linearGradient>
<linearGradient id="paint1_linear_0_1" x1="16" y1="13.5" x2="16" y2="19.5" gradientUnits="userSpaceOnUse">
<stop stop-color="#2D66F5"/>
<stop offset="1" stop-color="#144ADF"/>
</linearGradient>
</defs>
</svg>
