<svg width="32" height="29" viewBox="0 0 32 29" fill="none" xmlns="http://www.w3.org/2000/svg">
<path d="M29.5022 0.587891L17.8018 9.2919L19.9778 4.15511L29.5022 0.587891Z" fill="#E17726" stroke="#E17726" stroke-linecap="round" stroke-linejoin="round"/>
<path d="M2.46191 0.587891L14.091 9.36325L12.0221 4.15511L2.46191 0.587891Z" fill="#E27625" stroke="#E27625" stroke-linecap="round" stroke-linejoin="round"/>
<path d="M25.2925 20.7427L22.1533 25.5227L28.8597 27.3777L30.7503 20.8497L25.2925 20.7427Z" fill="#E27625" stroke="#E27625" stroke-linecap="round" stroke-linejoin="round"/>
<path d="M1.24902 20.8497L3.13965 27.3777L9.81034 25.5227L6.70687 20.7427L1.24902 20.8497Z" fill="#E27625" stroke="#E27625" stroke-linecap="round" stroke-linejoin="round"/>
<path d="M9.45358 12.6809L7.59863 15.499L14.198 15.7843L13.984 8.6499L9.45358 12.6809Z" fill="#E27625" stroke="#E27625" stroke-linecap="round" stroke-linejoin="round"/>
<path d="M22.5452 12.6809L17.9435 8.57861L17.8008 15.7844L24.4001 15.499L22.5452 12.6809Z" fill="#E27625" stroke="#E27625" stroke-linecap="round" stroke-linejoin="round"/>
<path d="M9.81055 25.5226L13.8058 23.5963L10.3456 20.8853L9.81055 25.5226Z" fill="#E27625" stroke="#E27625" stroke-linecap="round" stroke-linejoin="round"/>
<path d="M18.1934 23.5963L22.153 25.5226L21.6179 20.8853L18.1934 23.5963Z" fill="#E27625" stroke="#E27625" stroke-linecap="round" stroke-linejoin="round"/>
<path d="M22.1539 25.523L18.1943 23.5967L18.5154 26.1651L18.4797 27.2709L22.1539 25.523Z" fill="#D5BFB2" stroke="#D5BFB2" stroke-linecap="round" stroke-linejoin="round"/>
<path d="M9.81152 25.523L13.5214 27.2709L13.4858 26.1651L13.8068 23.5967L9.81152 25.523Z" fill="#D5BFB2" stroke="#D5BFB2" stroke-linecap="round" stroke-linejoin="round"/>
<path d="M13.5929 19.173L10.2754 18.2098L12.5941 17.1396L13.5929 19.173Z" fill="#233447" stroke="#233447" stroke-linecap="round" stroke-linejoin="round"/>
<path d="M18.4082 19.173L19.3714 17.1396L21.7257 18.2098L18.4082 19.173Z" fill="#233447" stroke="#233447" stroke-linecap="round" stroke-linejoin="round"/>
<path d="M9.81149 25.5227L10.3822 20.7427L6.70801 20.8497L9.81149 25.5227Z" fill="#CC6228" stroke="#CC6228" stroke-linecap="round" stroke-linejoin="round"/>
<path d="M21.6191 20.7427L22.1542 25.5227L25.2934 20.8497L21.6191 20.7427Z" fill="#CC6228" stroke="#CC6228" stroke-linecap="round" stroke-linejoin="round"/>
<path d="M24.4011 15.499L17.8018 15.7844L18.4082 19.1733L19.3713 17.1399L21.7257 18.2101L24.4011 15.499Z" fill="#CC6228" stroke="#CC6228" stroke-linecap="round" stroke-linejoin="round"/>
<path d="M10.275 18.2101L12.5937 17.1399L13.5925 19.1733L14.199 15.7844L7.59961 15.499L10.275 18.2101Z" fill="#CC6228" stroke="#CC6228" stroke-linecap="round" stroke-linejoin="round"/>
<path d="M7.59961 15.499L10.3464 20.8855L10.275 18.2101L7.59961 15.499Z" fill="#E27525" stroke="#E27525" stroke-linecap="round" stroke-linejoin="round"/>
<path d="M21.7262 18.2101L21.6191 20.8855L24.4016 15.499L21.7262 18.2101Z" fill="#E27525" stroke="#E27525" stroke-linecap="round" stroke-linejoin="round"/>
<path d="M14.1992 15.7847L13.5928 19.1735L14.3419 23.2045L14.5203 17.8893L14.1992 15.7847Z" fill="#E27525" stroke="#E27525" stroke-linecap="round" stroke-linejoin="round"/>
<path d="M17.8015 15.7847L17.4805 17.8893L17.6232 23.2045L18.4079 19.1735L17.8015 15.7847Z" fill="#E27525" stroke="#E27525" stroke-linecap="round" stroke-linejoin="round"/>
<path d="M18.4078 19.1731L17.623 23.2041L18.1938 23.5965L21.6183 20.8854L21.7253 18.21L18.4078 19.1731Z" fill="#F5841F" stroke="#F5841F" stroke-linecap="round" stroke-linejoin="round"/>
<path d="M10.2754 18.21L10.3467 20.8854L13.8069 23.5965L14.342 23.2041L13.5929 19.1731L10.2754 18.21Z" fill="#F5841F" stroke="#F5841F" stroke-linecap="round" stroke-linejoin="round"/>
<path d="M18.4789 27.2709L18.5146 26.165L18.1935 25.9153H13.7702L13.4848 26.165L13.5205 27.2709L9.81055 25.5229L11.0947 26.5931L13.7345 28.4124H18.2292L20.8689 26.5931L22.1531 25.5229L18.4789 27.2709Z" fill="#C0AC9D" stroke="#C0AC9D" stroke-linecap="round" stroke-linejoin="round"/>
<path d="M18.1941 23.5965L17.6233 23.2041H14.3415L13.8064 23.5965L13.4854 26.1649L13.7707 25.9152H18.1941L18.5151 26.1649L18.1941 23.5965Z" fill="#161616" stroke="#161616" stroke-linecap="round" stroke-linejoin="round"/>
<path d="M30.0008 9.86265L30.9997 5.04691L29.5014 0.587891L18.1934 9.00652L22.5454 12.6808L28.681 14.4644L30.0365 12.8948L29.4658 12.4667L30.3932 11.6106L29.6798 11.0398L30.6073 10.3264L30.0008 9.86265Z" fill="#763E1A" stroke="#763E1A" stroke-linecap="round" stroke-linejoin="round"/>
<path d="M1 5.04691L1.99882 9.86265L1.35672 10.3264L2.2842 11.0398L1.57075 11.6106L2.5339 12.4667L1.92748 12.8948L3.28302 14.4644L9.4543 12.6808L13.8063 9.00652L2.46256 0.587891L1 5.04691Z" fill="#763E1A" stroke="#763E1A" stroke-linecap="round" stroke-linejoin="round"/>
<path d="M28.6813 14.4643L22.5456 12.6807L24.4006 15.4988L21.6182 20.8853L25.2924 20.8496H30.7502L28.6813 14.4643Z" fill="#F5841F" stroke="#F5841F" stroke-linecap="round" stroke-linejoin="round"/>
<path d="M9.4546 12.6807L3.28331 14.4643L1.25 20.8496H6.70784L10.3464 20.8853L7.59965 15.4988L9.4546 12.6807Z" fill="#F5841F" stroke="#F5841F" stroke-linecap="round" stroke-linejoin="round"/>
<path d="M17.8014 15.7844L18.1937 9.00669L19.9774 4.15527H12.0225L13.8061 9.00669L14.1985 15.7844L14.3412 17.9247V23.2042H17.623V17.9247L17.8014 15.7844Z" fill="#F5841F" stroke="#F5841F" stroke-linecap="round" stroke-linejoin="round"/>
</svg>
