<svg width="32" height="20" viewBox="0 0 32 20" fill="none" xmlns="http://www.w3.org/2000/svg">
<path fill-rule="evenodd" clip-rule="evenodd" d="M16 4.4239C12.8694 4.4239 10.4562 6.1948 9.11092 7.4351C8.91052 7.6199 8.59992 7.6201 8.40542 7.4291L6.29382 5.3553C6.09422 5.1593 6.09242 4.8384 6.29692 4.6476C7.90602 3.1458 11.2988 0.5 16 0.5C20.7012 0.5 24.094 3.1458 25.7031 4.6476C25.9076 4.8384 25.9058 5.1593 25.7062 5.3553L23.5946 7.4291C23.4001 7.6201 23.0895 7.6199 22.8891 7.4351C21.5438 6.1948 19.1306 4.4239 16 4.4239ZM0.378416 11.4426C0.170516 11.2555 0.156516 10.9343 0.347416 10.7299L2.36482 8.5685C2.55082 8.3692 2.86222 8.3557 3.06482 8.5381L9.02172 13.9007C9.21062 14.0708 9.49702 14.0721 9.68742 13.9038L15.6689 8.6169C15.858 8.4497 16.142 8.4497 16.3311 8.6169L22.3126 13.9038C22.503 14.0721 22.7894 14.0708 22.9783 13.9007L28.9352 8.5381C29.1378 8.3557 29.4492 8.3692 29.6352 8.5685L31.6526 10.7299C31.8435 10.9343 31.8295 11.2555 31.6216 11.4426L23.0029 19.2016C22.8141 19.3716 22.5277 19.3729 22.3373 19.2046L16.3311 13.8959C16.142 13.7288 15.858 13.7288 15.6689 13.8959L9.66272 19.2046C9.47232 19.3729 9.18592 19.3716 8.99712 19.2016L0.378416 11.4426Z" fill="#278FFC"/>
</svg>
